<svg width="44" height="40" viewBox="0 0 44 40" fill="none" xmlns="http://www.w3.org/2000/svg">
<g clip-path="url(#clip0_4297:133002)">
<path d="M33.6282 18.3327C33.6282 11.8827 28.4854 6.66602 22.1267 6.66602C16.836 6.66602 12.3833 10.2993 11.0524 15.2493C7.04336 16.1827 4.05298 19.816 4.05298 24.166C4.05298 29.2327 8.09493 33.3327 13.0899 33.3327C15.9817 33.3327 29.9313 33.3327 32.8067 33.3327C36.8979 33.316 40.2005 29.9493 40.2005 25.7993C40.2005 21.916 37.3251 18.766 33.6282 18.3327ZM23.7698 21.666V24.9993C23.7698 25.916 23.0304 26.666 22.1267 26.666C21.223 26.666 20.4837 25.916 20.4837 24.9993V21.666H17.5426C16.8032 21.666 16.4417 20.766 16.9675 20.2493L21.5517 15.5993C21.8803 15.266 22.3896 15.266 22.7182 15.5993L27.3024 20.2493C27.8117 20.766 27.4503 21.666 26.7273 21.666H23.7698Z" fill="#6251DC"/>
</g>
<defs>
<clipPath id="clip0_4297:133002">
<rect width="43.377" height="40" fill="white" transform="translate(0.438232)"/>
</clipPath>
</defs>
</svg>
